{"accessors":[{"bufferView":0,"byteOffset":0,"componentType":5126,"count":243,"max":[10.5,1.5,7.5],"min":[-10.5,-1.5,-7.500002],"normalized":false,"type":"VEC3"},{"bufferView":1,"byteOffset":0,"componentType":5126,"count":243,"max":[1,0.000031,0.000443,1],"min":[-1,-1,-1,-1],"normalized":false,"type":"VEC4"},{"bufferView":2,"byteOffset":0,"componentType":5126,"count":243,"max":[1,1,1],"min":[-1,-1,-1],"normalized":false,"type":"VEC3"},{"bufferView":3,"byteOffset":0,"componentType":5126,"count":243,"max":[1,1],"min":[0,0],"normalized":false,"type":"VEC2"},{"bufferView":4,"byteOffset":0,"componentType":5125,"count":243,"max":[242],"min":[0],"normalized":false,"type":"SCALAR"},{"bufferView":5,"byteOffset":0,"componentType":5126,"count":60,"max":[6,1.5,5],"min":[1,-1.5,-5],"normalized":false,"type":"VEC3"},{"bufferView":6,"byteOffset":0,"componentType":5126,"count":60,"max":[0,0,0.000076,1],"min":[-1,-1,-1,-1],"normalized":false,"type":"VEC4"},{"bufferView":7,"byteOffset":0,"componentType":5126,"count":60,"max":[1,1,1],"min":[-1,-1,-1],"normalized":false,"type":"VEC3"},{"bufferView":8,"byteOffset":0,"componentType":5126,"count":60,"max":[1,1],"min":[0,0],"normalized":false,"type":"VEC2"},{"bufferView":9,"byteOffset":0,"componentType":5125,"count":60,"max":[59],"min":[0],"normalized":false,"type":"SCALAR"},{"bufferView":10,"byteOffset":0,"componentType":5126,"count":114,"max":[13.5,1.5,9],"min":[-13.5,-1.5,-9],"normalized":false,"type":"VEC3"},{"bufferView":11,"byteOffset":0,"componentType":5126,"count":114,"max":[0,0,0.000076,1],"min":[-1,-1,-1,-1],"normalized":false,"type":"VEC4"},{"bufferView":12,"byteOffset":0,"componentType":5126,"count":114,"max":[1,1,1],"min":[-1,-1,-1],"normalized":false,"type":"VEC3"},{"bufferView":13,"byteOffset":0,"componentType":5126,"count":114,"max":[1,1],"min":[0,0],"normalized":false,"type":"VEC2"},{"bufferView":14,"byteOffset":0,"componentType":5125,"count":114,"max":[113],"min":[0],"normalized":false,"type":"SCALAR"},{"bufferView":15,"byteOffset":0,"componentType":5126,"count":60,"max":[4.8,1.5,-1.5],"min":[-4.8,-1.5,-15.5],"normalized":false,"type":"VEC3"},{"bufferView":16,"byteOffset":0,"componentType":5126,"count":60,"max":[0,0,0.000076,1],"min":[-1,-1,-1,-1],"normalized":false,"type":"VEC4"},{"bufferView":17,"byteOffset":0,"componentType":5126,"count":60,"max":[1,1,1],"min":[-1,-1,-1],"normalized":false,"type":"VEC3"},{"bufferView":18,"byteOffset":0,"componentType":5126,"count":60,"max":[1,1],"min":[0,0],"normalized":false,"type":"VEC2"},{"bufferView":19,"byteOffset":0,"componentType":5125,"count":60,"max":[59],"min":[0],"normalized":false,"type":"SCALAR"},{"bufferView":20,"byteOffset":0,"componentType":5126,"count":1155,"max":[28,4.5,6],"min":[-34,-1.5,-31],"normalized":false,"type":"VEC3"},{"bufferView":21,"byteOffset":0,"componentType":5126,"count":1155,"max":[1,0.002493,1,1],"min":[-1,-1,-1,1],"normalized":false,"type":"VEC4"},{"bufferView":22,"byteOffset":0,"componentType":5126,"count":1155,"max":[1,1,1],"min":[-1,-1,-1],"normalized":false,"type":"VEC3"},{"bufferView":23,"byteOffset":0,"componentType":5126,"count":1155,"max":[1,1],"min":[0,0],"normalized":false,"type":"VEC2"},{"bufferView":24,"byteOffset":0,"componentType":5125,"count":1155,"max":[1154],"min":[0],"normalized":false,"type":"SCALAR"}],"asset":{"generator":"Godot Engine v4.2.2.stable.official@15073afe3856abd2aa1622492fe50026c7d63dc1","version":"2.0"},"bufferViews":[{"buffer":0,"byteLength":2916,"byteOffset":0},{"buffer":0,"byteLength":3888,"byteOffset":2916},{"buffer":0,"byteLength":2916,"byteOffset":6804},{"buffer":0,"byteLength":1944,"byteOffset":9720},{"buffer":0,"byteLength":972,"byteOffset":11664},{"buffer":0,"byteLength":720,"byteOffset":12636},{"buffer":0,"byteLength":960,"byteOffset":13356},{"buffer":0,"byteLength":720,"byteOffset":14316},{"buffer":0,"byteLength":480,"byteOffset":15036},{"buffer":0,"byteLength":240,"byteOffset":15516},{"buffer":0,"byteLength":1368,"byteOffset":15756},{"buffer":0,"byteLength":1824,"byteOffset":17124},{"buffer":0,"byteLength":1368,"byteOffset":18948},{"buffer":0,"byteLength":912,"byteOffset":20316},{"buffer":0,"byteLength":456,"byteOffset":21228},{"buffer":0,"byteLength":720,"byteOffset":21684},{"buffer":0,"byteLength":960,"byteOffset":22404},{"buffer":0,"byteLength":720,"byteOffset":23364},{"buffer":0,"byteLength":480,"byteOffset":24084},{"buffer":0,"byteLength":240,"byteOffset":24564},{"buffer":0,"byteLength":13860,"byteOffset":24804},{"buffer":0,"byteLength":18480,"byteOffset":38664},{"buffer":0,"byteLength":13860,"byteOffset":57144},{"buffer":0,"byteLength":9240,"byteOffset":71004},{"buffer":0,"byteLength":4620,"byteOffset":80244}],"buffers":[{"byteLength":84864,"uri":"main_level0.bin"}],"extensions":{"KHR_lights_punctual":{"lights":[{"color":[1,1,1],"intensity":1,"range":340282346638528859811704183484516925440,"type":"directional"}]}},"extensionsUsed":["GODOT_single_root","KHR_lights_punctual"],"materials":[{"extensions":{},"pbrMetallicRoughness":{"baseColorFactor":[0.99999988079071,0.99999988079071,0.99999988079071,1],"metallicFactor":0,"roughnessFactor":1}},{"extensions":{},"pbrMetallicRoughness":{"baseColorFactor":[0.99999988079071,0.99999988079071,0.99999988079071,1],"metallicFactor":0,"roughnessFactor":1}},{"extensions":{},"pbrMetallicRoughness":{"baseColorFactor":[0.99999988079071,0.99999988079071,0.99999988079071,1],"metallicFactor":0,"roughnessFactor":1}},{"extensions":{},"pbrMetallicRoughness":{"baseColorFactor":[0.99999988079071,0.99999988079071,0.99999988079071,1],"metallicFactor":0,"roughnessFactor":1}},{"extensions":{},"pbrMetallicRoughness":{"baseColorFactor":[0.99999988079071,0.99999988079071,0.99999988079071,1],"metallicFactor":0,"roughnessFactor":1}}],"meshes":[{"extras":{"targetNames":[]},"primitives":[{"attributes":{"NORMAL":2,"POSITION":0,"TANGENT":1,"TEXCOORD_0":3},"indices":4,"material":0,"mode":4}]},{"extras":{"targetNames":[]},"primitives":[{"attributes":{"NORMAL":7,"POSITION":5,"TANGENT":6,"TEXCOORD_0":8},"indices":9,"material":1,"mode":4}]},{"extras":{"targetNames":[]},"primitives":[{"attributes":{"NORMAL":12,"POSITION":10,"TANGENT":11,"TEXCOORD_0":13},"indices":14,"material":2,"mode":4}]},{"extras":{"targetNames":[]},"primitives":[{"attributes":{"NORMAL":17,"POSITION":15,"TANGENT":16,"TEXCOORD_0":18},"indices":19,"material":3,"mode":4}]},{"extras":{"targetNames":[]},"primitives":[{"attributes":{"NORMAL":22,"POSITION":20,"TANGENT":21,"TEXCOORD_0":23},"indices":24,"material":4,"mode":4}]}],"nodes":[{"children":[1,2,3,6,8,10,12,23],"extensions":{},"name":"MainLevel"},{"extensions":{},"name":"WorldEnvironment"},{"extensions":{"KHR_lights_punctual":{"light":0}},"name":"DirectionalLight3D","rotation":[-0.12941072881222,0.836515307426453,0.482963681221008,0.22414530813694]},{"children":[4,5],"extensions":{},"mesh":0,"name":"Overhang2","translation":[-19.5,1.5,11.5]},{"extensions":{},"name":"Overhang22","translation":[2,0,4]},{"extensions":{},"name":"Corridor6","rotation":[0,-0.70710676908493,0,0.70710676908493],"translation":[-6,-0.25,-8]},{"children":[7],"extensions":{},"mesh":1,"name":"Overhang24","translation":[-24,1.5,-5]},{"extensions":{},"name":"Overhang3","translation":[-5,0,0]},{"children":[9],"extensions":{},"mesh":2,"name":"Overhang33","translation":[1.5,1.5,-9]},{"extensions":{},"name":"Overhang4","translation":[-0.5,0,-0.5]},{"children":[11],"extensions":{},"mesh":3,"name":"Overhang43","translation":[27.2000007629395,1.5,-0.5]},{"extensions":{},"name":"Overhang5","translation":[0,0,14]},{"children":[13],"extensions":{},"mesh":4,"name":"Room2","translation":[4,1.5,13]},{"children":[14,15,16,17,18,19,20,21,22],"extensions":{},"name":"CSGCombiner3D"},{"extensions":{},"name":"Room22","translation":[-23.5,1.5,-1.5]},{"extensions":{},"name":"Corridor","translation":[-8.5,-0.25,0.5]},{"extensions":{},"name":"Corridor2","rotation":[0,-0.70710676908493,0,0.70710676908493],"translation":[-29.5,-0.25,-10.5]},{"extensions":{},"name":"Corridor3","rotation":[0,1,0,0.0000000437113882867379],"translation":[-21.5,2.75,-17.5]},{"extensions":{},"name":"Corridor4","rotation":[0,0.707106709480286,0,0.707106828689575],"translation":[-11,2.75,-16.5]},{"extensions":{},"name":"Corridor5","rotation":[0,1,0,0.0000000437113847340243],"translation":[14,2.75,-22.5]},{"extensions":{},"name":"Room3","translation":[-28,1.5,-18]},{"extensions":{},"name":"Room4","translation":[-2.5,1.5,-22]},{"extensions":{},"name":"Room5","translation":[23.2000007629395,1.5,-13.5]},{"extensions":{},"name":"Sprite3D","scale":[2.40000009536743,2.40000009536743,2.40000009536743],"translation":[0.00000000000208164735449046,0.100000001490116,0.00000000000208164735449046]}],"scene":0,"scenes":[{"nodes":[0]}]}